<svg width="400" height="400" viewBox="0 0 400 400" fill="none" xmlns="http://www.w3.org/2000/svg">
<g clip-path="url(#clip0_474_136)">
<path d="M140.582 244.207C140.582 253.255 133.173 260.625 123.914 260.625H30.6639C21.4048 260.625 14 253.255 14 244.207C14 235.16 21.4056 227.618 30.6639 227.618H123.914C133.173 227.618 140.582 234.988 140.582 244.207Z" fill="#2C2C2C"/>
<path d="M184.513 95.1104C181.484 97.9567 177.444 99.4618 173.236 99.4618C168.691 99.4618 164.146 97.4493 161.117 94.1041L138.56 69.8096L131.828 62.6033C128.964 59.593 127.451 55.5686 127.451 51.3803V25.5807C127.451 16.3703 134.857 9 143.947 9C153.038 9 160.611 16.3703 160.611 25.5807V45.0163L162.296 46.6931L185.523 71.6505C191.753 78.3579 191.244 88.9103 184.512 95.1104H184.513Z" fill="#2C2C2C"/>
<path d="M272.548 25.5807V51.3803C272.548 55.5686 271.035 59.593 268.171 62.6033L261.439 69.8096L238.882 94.1041C235.685 97.4501 231.308 99.4618 226.594 99.4618C222.554 99.4618 218.515 97.9567 215.486 95.1104C208.75 88.9103 208.249 78.3579 214.475 71.6505L237.871 46.6931L239.387 45.0163V25.5807C239.387 16.3703 246.792 9 255.883 9C264.973 9 272.547 16.3703 272.547 25.5807H272.548Z" fill="#2C2C2C"/>
<path d="M386 244.207C386 253.255 378.426 260.625 369.336 260.625H275.918C266.827 260.625 259.418 253.255 259.418 244.207C259.418 235.16 266.827 227.618 275.918 227.618H369.336C378.427 227.618 386 234.988 386 244.207Z" fill="#2C2C2C"/>
<path d="M133.342 310.048C133.342 319.087 125.937 326.457 116.846 326.457H87.2207C83.5184 326.457 79.9838 327.128 76.6179 328.469C64.4989 332.658 55.7458 344.216 55.7458 357.787V368.97C55.7458 378.181 48.3402 385.551 39.0819 385.551C29.8236 385.551 22.582 378.181 22.582 368.97V357.787C22.582 330.146 40.0883 306.522 64.6637 297.484C71.7358 294.801 79.31 293.459 87.2207 293.459H116.846C125.937 293.459 133.342 300.83 133.342 310.049V310.048Z" fill="#2C2C2C"/>
<path d="M133.342 178.366C133.342 187.414 125.937 194.784 116.846 194.784H87.2207C81.6687 194.784 76.4493 194.113 71.3993 192.78C43.2902 185.737 22.582 160.445 22.582 130.457V119.282C22.582 110.063 29.9915 102.692 39.0819 102.692C48.1723 102.692 55.7458 110.063 55.7458 119.282V130.457C55.7458 147.708 69.8823 161.786 87.2207 161.786H116.846C125.937 161.786 133.342 169.156 133.342 178.366Z" fill="#2C2C2C"/>
<path d="M377.416 357.787V368.97C377.416 378.18 370.011 385.551 360.752 385.551C351.494 385.551 344.256 378.18 344.256 368.97V357.787C344.256 344.216 335.503 332.658 323.384 328.469C320.018 327.128 316.485 326.457 312.781 326.457H283.156C273.897 326.457 266.492 319.086 266.492 310.048C266.492 301.009 273.898 293.458 283.156 293.458H312.781C320.692 293.458 328.266 294.8 335.335 297.483C359.91 306.522 377.416 330.145 377.416 357.786V357.787Z" fill="#2C2C2C"/>
<path d="M377.416 119.281V130.456C377.416 160.444 356.713 185.736 328.771 192.779C323.721 194.113 318.333 194.783 312.781 194.783H283.156C274.066 194.783 266.492 187.413 266.492 178.366C266.492 169.319 274.066 161.785 283.156 161.785H312.781C330.115 161.785 344.256 147.707 344.256 130.456V119.281C344.256 110.062 351.666 102.692 360.752 102.692C369.839 102.692 377.416 110.062 377.416 119.281Z" fill="#2C2C2C"/>
<path d="M133.341 310.048C133.341 319.087 125.936 326.457 116.845 326.457H87.2199C83.5176 326.457 79.983 327.128 76.6172 328.469C71.5664 318.752 67.6954 308.371 64.6621 297.484C71.7343 294.801 79.3085 293.459 87.2192 293.459H116.844C125.935 293.459 133.34 300.83 133.34 310.049L133.341 310.048Z" fill="#0C0C0C"/>
<path d="M87.2199 194.784C81.6678 194.784 76.4484 194.114 71.3984 192.78C75.9433 181.721 81.6678 171.332 88.3996 161.786H116.846C125.936 161.786 133.342 169.156 133.342 178.367C133.342 187.577 125.936 194.784 116.846 194.784H87.2206H87.2199Z" fill="#0C0C0C"/>
<path d="M140.581 244.208C140.581 253.255 133.172 260.625 123.913 260.625H59.278C59.1094 258.777 59.1094 256.773 59.1094 254.932C59.1094 245.55 59.9518 236.503 61.4642 227.619H123.913C133.172 227.619 140.581 234.989 140.581 244.208Z" fill="#0C0C0C"/>
<path d="M185.522 71.6507C191.752 78.3581 191.243 88.9105 184.511 95.1106C181.483 97.9569 177.443 99.4621 173.235 99.4621C168.69 99.4621 164.144 97.4495 161.116 94.1043L138.559 69.8098C144.452 60.2638 152.7 52.3868 162.295 46.6934L185.522 71.6507Z" fill="#0C0C0C"/>
<path d="M261.439 69.8108L238.882 94.1053C235.685 97.4513 231.308 99.463 226.594 99.463C222.554 99.463 218.515 97.9579 215.486 95.1115C208.75 88.9115 208.249 78.3591 214.475 71.6517L237.871 46.6943C242.753 49.7124 247.298 53.2301 251.506 57.2467C255.208 61.0993 258.574 65.2876 261.439 69.8108Z" fill="#0C0C0C"/>
<path d="M312.779 293.46C320.69 293.46 328.264 294.801 335.333 297.484C332.473 308.371 328.433 318.752 323.382 328.47C320.016 327.129 316.483 326.457 312.779 326.457H283.154C273.895 326.457 266.49 319.087 266.49 310.048C266.49 301.01 273.896 293.459 283.154 293.459H312.779V293.46Z" fill="#0C0C0C"/>
<path d="M266.49 178.367C266.49 169.156 274.064 161.786 283.154 161.786H311.6C318.5 171.168 324.225 181.721 328.77 192.78C323.72 194.114 318.332 194.784 312.78 194.784H283.155C274.064 194.784 266.491 187.414 266.491 178.367H266.49Z" fill="#0C0C0C"/>
<path d="M340.888 254.932C340.888 256.773 340.888 258.777 340.719 260.625H275.916C266.825 260.625 259.416 253.255 259.416 244.208C259.416 235.161 266.825 227.619 275.916 227.619H338.529C340.045 236.502 340.887 245.549 340.887 254.932H340.888Z" fill="#0C0C0C"/>
<path d="M255.925 108.506V149.857H144.016V108.506C144.016 77.8528 169.165 52.8174 199.97 52.8174C215.515 52.8174 229.362 59.0113 239.532 69.1328C249.709 79.2543 255.925 93.3174 255.925 108.506Z" fill="#FABB53"/>
<path d="M239.531 69.1311C229.364 59.0127 215.515 52.8203 199.973 52.8203C199.837 52.8203 199.714 52.8528 199.578 52.8613V149.86H255.924V108.51C255.924 93.3196 249.71 79.258 239.531 69.1311Z" fill="#F99944"/>
<path d="M76.0059 254.887C76.0059 329.997 131.588 391.001 200.166 391.001C268.743 391.001 324.031 329.997 324.031 254.887C324.031 179.776 268.442 118.759 200.166 118.759C131.89 118.759 76.0059 179.763 76.0059 254.887Z" fill="#E9293A"/>
<path d="M126.598 307.688C119.899 307.688 113.562 303.684 110.94 297.111C105.639 283.798 102.943 269.589 102.943 254.886C102.943 232.449 109.214 211.131 121.083 193.237C126.195 185.52 136.658 183.389 144.401 188.48C152.16 193.577 154.297 203.969 149.177 211.691C140.957 224.092 136.61 239.028 136.61 254.886C136.61 265.34 138.5 275.389 142.24 284.751C145.667 293.352 141.442 303.09 132.796 306.501C130.766 307.307 128.661 307.687 126.599 307.687L126.598 307.688Z" fill="#FE6559"/>
<path d="M199.578 118.8V390.957C268.252 390.465 324.032 329.697 324.032 254.882C324.032 180.067 268.252 119.29 199.578 118.8Z" fill="#D42032"/>
</g>
<defs>
<clipPath id="clip0_474_136">
<rect width="372" height="382" fill="white" transform="translate(14 9)"/>
</clipPath>
</defs>
</svg>
