<svg width="400" height="400" viewBox="0 0 400 400" fill="none" xmlns="http://www.w3.org/2000/svg">
<path d="M152.402 235.412C152.402 242.659 146.466 248.563 139.049 248.563H64.349C56.9318 248.563 51 242.659 51 235.412C51 228.165 56.9324 222.123 64.349 222.123H139.049C146.466 222.123 152.402 228.027 152.402 235.412Z" fill="white"/>
<path d="M187.593 115.978C185.167 118.258 181.931 119.464 178.56 119.464C174.919 119.464 171.278 117.852 168.852 115.172L150.782 95.7109L145.389 89.9383C143.094 87.5269 141.883 84.3032 141.883 80.9482V60.2814C141.883 52.9035 147.815 46.9995 155.097 46.9995C162.379 46.9995 168.446 52.9035 168.446 60.2814V75.8503L169.796 77.1935L188.403 97.1855C193.393 102.558 192.985 111.011 187.593 115.978H187.593Z" fill="white"/>
<path d="M258.116 60.2814V80.9482C258.116 84.3032 256.905 87.5269 254.61 89.9383L249.217 95.7109L231.147 115.172C228.586 117.852 225.08 119.464 221.304 119.464C218.068 119.464 214.832 118.258 212.406 115.978C207.01 111.011 206.608 102.558 211.596 97.1855L230.337 77.1935L231.552 75.8503V60.2814C231.552 52.9035 237.484 46.9995 244.766 46.9995C252.049 46.9995 258.115 52.9035 258.115 60.2814H258.116Z" fill="white"/>
<path d="M349 235.412C349 242.659 342.932 248.563 335.651 248.563H260.815C253.533 248.563 247.598 242.659 247.598 235.412C247.598 228.165 253.533 222.123 260.815 222.123H335.651C342.933 222.123 349 228.027 349 235.412Z" fill="white"/>
<path d="M146.602 288.153C146.602 295.393 140.67 301.297 133.388 301.297H109.655C106.69 301.297 103.858 301.834 101.162 302.909C91.4536 306.264 84.4417 315.523 84.4417 326.394V335.352C84.4417 342.73 78.5092 348.634 71.0926 348.634C63.676 348.634 57.875 342.73 57.875 335.352V326.394C57.875 304.253 71.8989 285.329 91.5856 278.088C97.2509 275.939 103.318 274.865 109.655 274.865H133.388C140.67 274.865 146.602 280.769 146.602 288.153V288.153Z" fill="white"/>
<path d="M146.602 182.67C146.602 189.917 140.67 195.821 133.388 195.821H109.655C105.208 195.821 101.027 195.284 96.9813 194.216C74.4638 188.574 57.875 168.314 57.875 144.292V135.341C57.875 127.956 63.8105 122.052 71.0926 122.052C78.3748 122.052 84.4417 127.956 84.4417 135.341V144.292C84.4417 158.111 95.7661 169.388 109.655 169.388H133.388C140.67 169.388 146.602 175.292 146.602 182.67Z" fill="white"/>
<path d="M342.124 326.394V335.353C342.124 342.731 336.192 348.635 328.775 348.635C321.359 348.635 315.561 342.731 315.561 335.353V326.394C315.561 315.524 308.549 306.265 298.84 302.91C296.144 301.835 293.313 301.297 290.347 301.297H266.615C259.197 301.297 253.266 295.393 253.266 288.153C253.266 280.913 259.198 274.864 266.615 274.864H290.347C296.684 274.864 302.751 275.939 308.414 278.088C328.1 285.328 342.124 304.252 342.124 326.393V326.394Z" fill="white"/>
<path d="M342.124 135.34V144.292C342.124 168.313 325.539 188.574 303.156 194.216C299.11 195.284 294.794 195.821 290.347 195.821H266.615C259.333 195.821 253.266 189.917 253.266 182.67C253.266 175.423 259.333 169.388 266.615 169.388H290.347C304.232 169.388 315.561 158.111 315.561 144.292V135.34C315.561 127.955 321.496 122.051 328.775 122.051C336.054 122.051 342.124 127.955 342.124 135.34Z" fill="white"/>
<path d="M146.601 288.153C146.601 295.393 140.669 301.297 133.387 301.297H109.655C106.689 301.297 103.857 301.834 101.161 302.909C97.1148 295.125 94.0138 286.81 91.584 278.088C97.2493 275.939 103.317 274.865 109.654 274.865H133.386C140.668 274.865 146.601 280.769 146.601 288.153L146.601 288.153Z" fill="#E5E5E5"/>
<path d="M109.655 195.821C105.207 195.821 101.026 195.284 96.9805 194.216C100.621 185.357 105.207 177.035 110.6 169.388H133.387C140.669 169.388 146.602 175.292 146.602 182.67C146.602 190.048 140.669 195.821 133.387 195.821H109.655H109.655Z" fill="#E5E5E5"/>
<path d="M152.402 235.412C152.402 242.659 146.466 248.563 139.049 248.563H87.2718C87.1367 247.082 87.1367 245.477 87.1367 244.002C87.1367 236.487 87.8116 229.24 89.0231 222.123H139.049C146.466 222.123 152.402 228.027 152.402 235.412Z" fill="#E5E5E5"/>
<path d="M188.403 97.1853C193.393 102.558 192.985 111.011 187.593 115.978C185.167 118.258 181.931 119.464 178.559 119.464C174.919 119.464 171.277 117.851 168.851 115.172L150.781 95.7107C155.502 88.0639 162.109 81.7541 169.796 77.1934L188.403 97.1853Z" fill="#E5E5E5"/>
<path d="M249.217 95.7112L231.147 115.172C228.586 117.853 225.08 119.464 221.304 119.464C218.068 119.464 214.832 118.258 212.406 115.978C207.01 111.012 206.608 102.559 211.596 97.1858L230.337 77.1938C234.248 79.6114 237.889 82.4293 241.26 85.6468C244.226 88.7329 246.922 92.0879 249.217 95.7112Z" fill="#E5E5E5"/>
<path d="M290.347 274.865C296.684 274.865 302.751 275.939 308.414 278.089C306.123 286.81 302.886 295.125 298.84 302.91C296.144 301.835 293.313 301.297 290.347 301.297H266.615C259.197 301.297 253.266 295.393 253.266 288.153C253.266 280.913 259.198 274.864 266.615 274.864H290.347V274.865Z" fill="#E5E5E5"/>
<path d="M253.264 182.67C253.264 175.292 259.331 169.388 266.613 169.388H289.4C294.928 176.904 299.513 185.357 303.155 194.216C299.109 195.284 294.793 195.821 290.345 195.821H266.613C259.331 195.821 253.264 189.917 253.264 182.67H253.264Z" fill="#E5E5E5"/>
<path d="M312.863 244.002C312.863 245.477 312.863 247.082 312.728 248.563H260.815C253.533 248.563 247.598 242.659 247.598 235.412C247.598 228.165 253.533 222.123 260.815 222.123H310.973C312.187 229.239 312.862 236.486 312.862 244.002H312.863Z" fill="#E5E5E5"/>
<path d="M244.8 126.708V159.832H155.152V126.708C155.152 102.154 175.298 82.0991 199.976 82.0991C212.429 82.0991 223.521 87.0607 231.668 95.1685C239.82 103.276 244.8 114.542 244.8 126.708Z" fill="#FABB53"/>
<path d="M231.667 95.1678C223.523 87.0624 212.429 82.1021 199.978 82.1021C199.869 82.1021 199.771 82.1281 199.662 82.1349V159.835H244.799V126.712C244.799 114.544 239.822 103.28 231.667 95.1678Z" fill="#F99944"/>
<path d="M100.672 243.966C100.672 304.133 145.198 353 200.133 353C255.069 353 299.359 304.133 299.359 243.966C299.359 183.799 254.827 134.921 200.133 134.921C145.439 134.921 100.672 183.788 100.672 243.966Z" fill="#E9293A"/>
<path d="M141.199 286.263C135.833 286.263 130.757 283.055 128.656 277.79C124.41 267.126 122.25 255.744 122.25 243.966C122.25 225.992 127.273 208.916 136.781 194.582C140.876 188.4 149.258 186.693 155.461 190.772C161.676 194.854 163.388 203.179 159.286 209.365C152.702 219.299 149.219 231.263 149.219 243.966C149.219 252.34 150.734 260.39 153.729 267.889C156.475 274.779 153.091 282.58 146.164 285.312C144.538 285.958 142.852 286.262 141.2 286.262L141.199 286.263Z" fill="#FE6559"/>
<path d="M199.662 134.955V352.965C254.675 352.572 299.359 303.893 299.359 243.963C299.359 184.033 254.675 135.347 199.662 134.955Z" fill="#D42032"/>
</svg>
